<svg height="512pt" viewBox="0 0 512.00174 512" width="512pt" xmlns="http://www.w3.org/2000/svg"><path d="m503.46875 315.734375v187.734375h-213.332031v-187.734375c-.007813-53.25 40.796875-97.621094 93.863281-102.058594 2.816406-.257812 5.632812-.339843 8.535156-.339843h8.535156c56.550782 0 102.398438 45.84375 102.398438 102.398437zm0 0" fill="#bfa885"/><path d="m477.867188 315.734375v187.734375h-187.730469v-187.734375c-.007813-53.25 40.796875-97.621094 93.863281-102.058594 53.066406 4.4375 93.875 48.808594 93.867188 102.058594zm0 0" fill="#ffe0b2"/><path d="m396.800781 384c-17.304687 0-34.539062-2.296875-51.242187-6.824219-8.402344-2.570312-14.386719-10.015625-15.085938-18.773437l-6.085937-59.359375c-.824219-7.484375 2.128906-14.886719 7.878906-19.746094 37.410156-31.089844 91.671875-31.089844 129.082031 0 5.742188 4.855469 8.695313 12.253906 7.867188 19.730469l-6.082032 59.375c-.699218 8.753906-6.675781 16.195312-15.070312 18.773437-16.710938 4.527344-33.949219 6.824219-51.261719 6.824219zm0 0" fill="#bfa885"/><path d="m469.335938 284.84375c0 .351562-.085938.691406-.085938.972656l-7.507812 67.320313c-.34375 3.160156-2.628907 5.769531-5.71875 6.519531-1.621094.484375-3.328126.851562-4.949219 1.246094h-.085938c-11.105469 2.496094-22.367187 4.238281-33.707031 5.203125-4.523438.34375-9.042969.625-13.652344.761719-2.304687.066406-4.523437.066406-6.828125.066406-2.304687 0-4.605469 0-6.910156-.066406-2.644531-.070313-5.292969-.214844-7.9375-.417969-4.09375-.273438-8.191406-.625-12.203125-1.109375-2.558594-.207032-5.035156-.554688-7.59375-.898438-6.484375-.902344-13.054688-2.082031-19.542969-3.539062h-.082031c-1.621094-.417969-3.328125-.761719-4.949219-1.246094-3.089843-.75-5.378906-3.359375-5.71875-6.519531l-7.507812-67.320313c-.34375-2.605468.769531-5.183594 2.898437-6.722656 9.941406-7.488281 21.039063-13.296875 32.855469-17.195312 23.828125-7.863282 49.554687-7.863282 73.386719 0 11.816406 3.898437 22.914062 9.707031 32.851562 17.195312 1.863282 1.324219 2.972656 3.464844 2.988282 5.75zm0 0" fill="#ffecb3"/><path d="m450.988281 359.511719c-11.039062 3.058593-22.3125 5.199219-33.707031 6.398437-4.523438.425782-9.042969.769532-13.652344.9375-2.304687.085938-4.523437.085938-6.828125.085938-2.304687 0-4.605469 0-6.910156-.085938-2.644531-.082031-5.292969-.253906-7.9375-.511718-4.09375-.339844-8.191406-.765626-12.203125-1.363282-.9375-.085937-1.789062-.257812-2.730469-.34375l-4.863281-.765625c-6.484375-1.109375-13.054688-2.5625-19.542969-4.351562 5.570313-25.46875 28.121094-43.621094 54.1875-43.621094 26.070313 0 48.621094 18.152344 54.1875 43.621094zm0 0" fill="#ffecb3"/><path d="m124.1875 148.019531c-4.175781 2.128907-5.855469 7.226563-3.757812 11.417969 2.09375 4.191406 7.175781 5.910156 11.386718 3.847656 9.875-4.964844 20.503906-8.265625 31.453125-9.761718 4.613281-.6875 7.816407-4.953126 7.195313-9.574219-.621094-4.621094-4.835938-7.886719-9.464844-7.335938-12.816406 1.746094-25.253906 5.601563-36.8125 11.40625zm0 0"/><path d="m64.445312 434.859375c2.738282-.003906 5.3125-1.320313 6.914063-3.542969s2.039063-5.078125 1.175781-7.679687c-2.882812-8.765625-4.324218-17.945313-4.265625-27.175781v-21.761719c0-4.710938-3.820312-8.53125-8.535156-8.53125-4.710937 0-8.53125 3.820312-8.53125 8.53125v22.273437c-.023437 10.886719 1.707031 21.703125 5.117187 32.042969 1.164063 3.496094 4.4375 5.855469 8.125 5.84375zm0 0"/><path d="m94.117188 191.890625c4.171874-5.359375 8.828124-10.316406 13.917968-14.8125 3.292969-3.167969 3.511719-8.363281.492188-11.792969-3.015625-3.429687-8.199219-3.875-11.757813-1.007812-5.875 5.175781-11.253906 10.890625-16.066406 17.066406-10.140625 12.832031-17.855469 27.410156-22.761719 43.015625-4.496094 13.96875-6.773437 28.554687-6.738281 43.230469v72.976562c0 4.714844 3.820313 8.535156 8.53125 8.535156 4.714844 0 8.535156-3.820312 8.535156-8.535156v-72.976562c-.019531-12.914063 1.996094-25.753906 5.972657-38.042969 4.277343-13.65625 11.011718-26.417969 19.875-37.65625zm0 0"/><path d="m298.667969 222.292969c2.972656.023437 5.742187-1.503907 7.308593-4.03125 1.570313-2.527344 1.710938-5.6875.371094-8.339844-19.195312-39.269531-56.402344-66.648437-99.601562-73.300781-3.015625-.4375-6.039063.769531-7.925782 3.164062-1.886718 2.398438-2.351562 5.617188-1.21875 8.449219 1.128907 2.832031 3.6875 4.84375 6.707032 5.28125 37.636718 5.890625 70.015625 29.824219 86.679687 64.085937 1.460938 2.898438 4.4375 4.714844 7.679688 4.691407zm0 0"/><path d="m247.46875 266.847656c-1.214844-34.496094-29.441406-61.878906-63.957031-62.046875-3.703125-.023437-7.394531.304688-11.035157.980469-14.921874 2.601562-28.429687 10.4375-38.09375 22.101562-8.703124 10.179688-13.847656 22.921876-14.640624 36.292969-.210938 1.53125-.300782 3.078125-.273438 4.625v40.191407c0 15.96875 0 35.261718.085938 55.636718-.0625 30.269532 13.503906 58.953125 36.941406 78.105469 22.152344 18.160156 45.261718 35.117187 69.230468 50.800781l9.078126-14.445312c-23.363282-15.308594-45.894532-31.847656-67.5-49.554688-19.597657-16.058594-30.886719-40.113281-30.71875-65.449218-.050782-19.875-.050782-39.144532-.050782-55.09375v-40.191407c-.023437-.953125.03125-1.90625.160156-2.851562.519532-9.976563 4.304688-19.507813 10.78125-27.117188 7.125-8.601562 17.089844-14.371093 28.097657-16.265625 2.617187-.488281 5.273437-.722656 7.9375-.699218 25.371093.117187 46.09375 20.296874 46.890625 45.652343-.027344.429688 0 .859375.078125 1.28125v43.519531c-.035157 14.242188 3.128906 28.308594 9.257812 41.164063 1.996094 4.269531 7.078125 6.113281 11.347657 4.113281 4.269531-1.996094 6.113281-7.078125 4.113281-11.347656-5.128907-10.78125-7.753907-22.585938-7.679688-34.527344v-42.921875c.015625-.652343 0-1.304687-.050781-1.953125zm0 0"/><path d="m196.269531 327.519531v1.015625c.15625 29.941406 13.660157 58.253906 36.835938 77.21875l9.019531 7.363282c3.664062 2.855468 8.9375 2.257812 11.867188-1.34375 2.929687-3.601563 2.441406-8.886719-1.097657-11.890626l-9.0625-7.347656c-19.203125-15.75-30.382812-39.242187-30.496093-64.078125v-.980469c.085937-17.84375.085937-33.28125.085937-43.929687v-13.5c-.03125-8.6875-3.617187-16.988281-9.925781-22.964844-5.832032-5.617187-13.730469-8.566406-21.820313-8.148437-15.757812.921875-28.070312 13.96875-28.074219 29.757812v23.890625c0 11.898438 0 27.308594.085938 44.144531v11.203126c-.023438 30.210937 13.59375 58.816406 37.058594 77.84375 16.511718 13.421874 31.480468 25.597656 41.960937 34.019531.265625.273437.550781.527343.851563.761719 2.484375 1.96875 4.683594 3.761718 6.589844 5.296874l1.988281 1.613282c3.667969 2.824218 8.917969 2.203125 11.832031-1.394532 2.914062-3.597656 2.425781-8.863281-1.097656-11.867187l-1.972656-1.59375c-1.707032-1.40625-3.71875-3.019531-5.921876-4.789063-.234374-.238281-.480468-.464843-.742187-.671874-10.496094-8.484376-25.78125-20.875-42.667969-34.613282-19.476562-15.789062-30.785156-39.53125-30.769531-64.605468v-11.289063c-.128906-16.871094-.128906-32.222656-.128906-44.089844v-23.894531c.003906-3.363281 1.339843-6.589844 3.722656-8.96875 2.222656-2.191406 5.167969-3.5 8.285156-3.6875 3.371094-.167969 6.65625 1.101562 9.042969 3.492188 2.914062 2.742187 4.574219 6.5625 4.59375 10.5625v13.5c0 10.597656 0 26.027343-.042969 43.964843zm0 0"/><path d="m68.269531 45.398438c1.363281 0 2.707031-.328126 3.914063-.957032 50.726562-26.324218 109.09375-33.96875 164.890625-21.605468 4.601562 1.027343 9.160156-1.867188 10.1875-6.46875 1.027343-4.597657-1.867188-9.160157-6.464844-10.1875-59.707031-13.238282-122.167969-5.058594-176.453125 23.109374-3.496094 1.808594-5.300781 5.773438-4.367188 9.597657.929688 3.820312 4.355469 6.511719 8.292969 6.511719zm0 0"/><path d="m269.835938 33.496094c11.390624 4.664062 22.414062 10.175781 32.980468 16.492187 2.613282 1.566407 5.867188 1.621094 8.53125.140625 2.667969-1.484375 4.339844-4.273437 4.386719-7.324218.050781-3.046876-1.53125-5.890626-4.148437-7.457032-11.300782-6.761718-23.09375-12.65625-35.285157-17.640625-4.320312-1.636719-9.160156.46875-10.914062 4.746094-1.753907 4.277344.21875 9.171875 4.449219 11.042969zm0 0"/><path d="m25.601562 119.46875c2.296876 0 4.496094-.921875 6.101563-2.5625 55.605469-56.285156 137.050781-78.5625 213.5625-58.417969 2.984375.910157 6.230469.121094 8.460937-2.058593 2.230469-2.183594 3.09375-5.410157 2.246094-8.414063-.84375-3.003906-3.261718-5.304687-6.300781-6.003906-82.460937-21.757813-170.261719 2.257812-230.171875 62.949219-2.40625 2.453124-3.105469 6.113281-1.773438 9.28125 1.335938 3.167968 4.4375 5.230468 7.875 5.226562zm0 0"/><path d="m372.40625 134.554688c1.738281-1.449219 2.828125-3.53125 3.03125-5.785157.203125-2.257812-.496094-4.5-1.949219-6.238281-25.101562-29.738281-56.777343-53.230469-92.527343-68.609375-.160157-.074219-.304688-.152344-.476563-.21875-1.398437-.597656-2.765625-1.28125-4.171875-1.863281-4.359375-1.789063-9.347656.292968-11.136719 4.652344-1.792969 4.359374.289063 9.34375 4.648438 11.136718 35.070312 14.296875 66.144531 36.890625 90.558593 65.84375 1.449219 1.738282 3.53125 2.828125 5.785157 3.03125 2.253906.203125 4.5-.496094 6.238281-1.949218zm0 0"/><path d="m76.800781 119.46875c1.609375-.003906 3.179688-.457031 4.539063-1.316406 17.742187-11.074219 37.078125-19.359375 57.335937-24.558594 3.011719-.707031 5.402344-2.988281 6.253907-5.960938.847656-2.976562.023437-6.175781-2.160157-8.367187-2.183593-2.191406-5.382812-3.03125-8.359375-2.191406-21.953125 5.640625-42.910156 14.625-62.132812 26.640625-3.210938 2.023437-4.699219 5.925781-3.652344 9.574218 1.050781 3.648438 4.382812 6.167969 8.175781 6.179688zm0 0"/><path d="m5.769531 204.339844c4.460938 1.527344 9.3125-.847656 10.839844-5.308594 8.414063-24.484375 22.316406-46.722656 40.640625-65.015625 2.972656-3.390625 2.789062-8.507813-.414062-11.679687-3.203126-3.175782-8.320313-3.308594-11.683594-.308594-20.148438 20.109375-35.433594 44.554687-44.691406 71.476562-1.523438 4.457032.851562 9.308594 5.308593 10.835938zm0 0"/><path d="m358.402344 187.734375c2.949218.007813 5.691406-1.511719 7.253906-4.011719s1.722656-5.628906.425781-8.277344c-34.378906-66.59375-103.40625-108.078124-178.347656-107.175781-4.710937 0-8.53125 3.820313-8.53125 8.53125 0 4.714844 3.820313 8.535157 8.53125 8.535157 68.417969-.902344 131.492187 36.875 162.988281 97.621093 1.433594 2.929688 4.414063 4.785157 7.679688 4.777344zm0 0"/><path d="m324.269531 202.410156c3.085938-.003906 5.929688-1.675781 7.4375-4.371094 1.503907-2.695312 1.4375-5.992187-.175781-8.625-7.53125-12.21875-16.566406-23.445312-26.890625-33.414062-2.1875-2.132812-5.351563-2.933594-8.289063-2.09375-2.941406.835938-5.207031 3.183594-5.945312 6.148438-.738281 2.964843.167969 6.097656 2.375 8.214843 9.3125 8.972657 17.464844 19.078125 24.257812 30.082031 1.546876 2.511719 4.28125 4.046876 7.230469 4.058594zm0 0"/><path d="m47.90625 207.277344c26.175781-55.453125 82.882812-89.972656 144.164062-87.757813 4.679688.050781 8.558594-3.625 8.753907-8.304687.125-4.707032-3.589844-8.628906-8.300781-8.753906-68.0625-2.378907-131.011719 35.980468-160.09375 97.5625-8.921876 18.867187-14.085938 39.292968-15.207032 60.132812-.070312 2.824219-.152344 5.734375-.152344 8.644531 0 19.089844 0 29.328125.101563 30.414063.3125 4.476562 4.042969 7.945312 8.53125 7.933594h.445313c4.675781-.234376 8.289062-4.195313 8.097656-8.875-.109375-2.292969-.109375-28.0625-.109375-29.472657 0-2.730469.082031-5.453125.160156-7.882812 1.015625-18.59375 5.636719-36.8125 13.609375-53.640625zm0 0"/><path d="m230.675781 124.691406c13.464844 3.882813 26.097657 10.214844 37.273438 18.667969 3.769531 2.828125 9.117187 2.066406 11.945312-1.703125 2.828125-3.773438 2.0625-9.121094-1.707031-11.949219-12.878906-9.722656-27.4375-16.996093-42.949219-21.453125l-2.617187-.734375c-4.523438-1.144531-9.125 1.550781-10.339844 6.054688-1.214844 4.503906 1.414062 9.148437 5.902344 10.425781zm0 0"/><path d="m196.679688 171.222656c-23.09375-2.421875-46.324219 3.050782-65.90625 15.53125-12.777344 8.132813-23.523438 19.089844-31.410157 32.023438-6.992187 11.363281-11.484375 24.085937-13.175781 37.316406-.578125 4.210938-.863281 8.457031-.851562 12.707031v111.957031c.019531 30.46875 13.957031 59.253907 37.84375 78.167969 13.226562 10.597657 27.921874 21.1875 40.875 30.53125 10.242187 7.355469 19.847656 14.308594 26.898437 19.914063 3.691406 2.832031 8.96875 2.183594 11.863281-1.453125 2.898438-3.636719 2.351563-8.925781-1.230468-11.890625-7.375-5.871094-17.171876-12.9375-27.546876-20.421875-12.800781-9.214844-27.308593-19.625-40.183593-30.003907-19.929688-15.789062-31.523438-39.84375-31.453125-65.269531v-111.53125c0-3.492187.238281-6.984375.714844-10.445312 1.378906-10.890625 5.066406-21.363281 10.8125-30.71875 6.535156-10.71875 15.4375-19.792969 26.027343-26.53125 16.328125-10.394531 35.695313-14.953125 54.945313-12.9375 35.492187 3.765625 61.191406 34.734375 70.050781 61.910156 1.585937 4.308594 6.292969 6.585937 10.65625 5.164063 4.359375-1.421876 6.816406-6.042969 5.558594-10.453126-10.847657-33.289062-41.183594-69-84.488281-73.566406zm0 0"/><path d="m401.070312 204.800781h-8.535156c-61.238281.070313-110.863281 49.695313-110.933594 110.933594v187.734375c0 4.710938 3.820313 8.53125 8.535157 8.53125 4.710937 0 8.53125-3.820312 8.53125-8.53125v-187.734375c.0625-51.816406 42.050781-93.804687 93.867187-93.867187h8.535156c51.8125.0625 93.804688 42.050781 93.863282 93.867187v187.734375c0 4.710938 3.820312 8.53125 8.535156 8.53125 4.710938 0 8.53125-3.820312 8.53125-8.53125v-187.734375c-.070312-61.238281-49.695312-110.863281-110.929688-110.933594zm0 0"/><path d="m458.054688 367.976562c6.558593-1.652343 11.414062-7.191406 12.195312-13.910156l7.523438-67.285156c.613281-5.640625-1.796876-11.183594-6.339844-14.582031-44.292969-32.976563-104.972656-32.976563-149.265625 0-4.542969 3.398437-6.953125 8.949219-6.332031 14.589843l7.519531 67.277344c.777343 6.722656 5.636719 12.261719 12.203125 13.910156 40.21875 9.988282 82.269531 9.988282 122.488281 0zm-117.804688-16.402343-7.386719-66.039063c38.035157-27.976562 89.84375-27.976562 127.878907 0l-7.390626 66.039063c-37.152343 9.078125-75.945312 9.078125-113.101562 0zm0 0"/><path d="m439.253906 324.789062c-11.257812-11.261718-26.527344-17.589843-42.453125-17.589843-15.921875 0-31.195312 6.328125-42.453125 17.589843l-1.980468 1.980469c-3.230469 3.347657-3.1875 8.667969.105468 11.960938 3.292969 3.292969 8.613282 3.335937 11.960938.105469l1.980468-1.980469c8.058594-8.058594 18.992188-12.585938 30.386719-12.585938 11.398438 0 22.328125 4.527344 30.386719 12.585938l1.980469 1.980469c3.347656 3.230468 8.671875 3.1875 11.960937-.105469 3.292969-3.292969 3.339844-8.613281.105469-11.960938zm0 0"/><path d="m426.667969 426.667969h-59.734375c-4.710938 0-8.53125 3.820312-8.53125 8.535156 0 4.710937 3.820312 8.53125 8.53125 8.53125h59.734375c4.714843 0 8.535156-3.820313 8.535156-8.53125 0-4.714844-3.820313-8.535156-8.535156-8.535156zm0 0"/><path d="m426.667969 460.800781h-59.734375c-4.710938 0-8.53125 3.820313-8.53125 8.535157 0 4.710937 3.820312 8.53125 8.53125 8.53125h59.734375c4.714843 0 8.535156-3.820313 8.535156-8.53125 0-4.714844-3.820313-8.535157-8.535156-8.535157zm0 0"/></svg>