<svg height="511pt" viewBox="0 0 511.2405 511" width="511pt" xmlns="http://www.w3.org/2000/svg"><path d="m502.699219 400.25c-.09375 56.582031-45.988281 102.398438-102.570313 102.398438-4.25.003906-8.496094-.253907-12.714844-.769532-51.324218-6.320312-89.882812-49.917968-89.882812-101.628906 0-51.714844 38.558594-95.3125 89.882812-101.632812 4.21875-.515626 8.464844-.769532 12.714844-.769532 56.582032 0 102.476563 45.820313 102.570313 102.402344zm0 0" fill="#c52828"/><path d="m477.269531 400.25c0-56.132812-40.230469-101.632812-89.855469-101.632812s-89.855468 45.5-89.855468 101.632812c0 56.128906 40.230468 101.628906 89.855468 101.628906s89.855469-45.5 89.855469-101.628906zm0 0" fill="#f44335"/><path d="m400.128906 289.316406c-61.246094.097656-110.820312 49.808594-110.753906 111.050782.066406 61.242187 49.75 110.847656 110.992188 110.816406 61.242187-.035156 110.875-49.691406 110.875-110.933594-.121094-61.289062-49.824219-110.917969-111.113282-110.933594zm0 204.796875c-51.820312-.097656-93.753906-42.167969-93.6875-93.984375s42.109375-93.78125 93.925782-93.746094c51.816406.03125 93.804687 42.046876 93.808593 93.867188-.109375 51.863281-42.179687 93.855469-94.046875 93.863281zm0 0"/><path d="m135.101562 149.164062c-2.757812 1.304688-4.609374 3.980469-4.855468 7.019532-.25 3.039062 1.144531 5.980468 3.652344 7.714844 2.507812 1.734374 5.75 2 8.503906.695312 10.558594-5.023438 21.839844-8.34375 33.433594-9.832031 3.042968-.363281 5.660156-2.328125 6.851562-5.152344 1.195312-2.820313.78125-6.066406-1.078125-8.503906-1.863281-2.433594-4.886719-3.683594-7.921875-3.273438-13.378906 1.71875-26.402344 5.542969-38.585938 11.332031zm0 0"/><path d="m72.105469 434.980469c.921875.003906 1.839843-.140625 2.714843-.429688 2.148438-.71875 3.921876-2.261719 4.929688-4.289062 1.007812-2.027344 1.167969-4.375.445312-6.519531-2.921874-8.757813-4.386718-17.933594-4.335937-27.164063v-21.757813c0-4.714843-3.820313-8.535156-8.53125-8.535156-4.714844 0-8.535156 3.820313-8.535156 8.535156v22.269532c-.007813 10.902344 1.753906 21.734375 5.214843 32.070312 1.167969 3.480469 4.429688 5.824219 8.097657 5.820313zm0 0"/><path d="m102.980469 194.765625c4.429687-5.304687 9.347656-10.183594 14.695312-14.566406 3.640625-2.992188 4.167969-8.371094 1.175781-12.015625-2.992187-3.640625-8.371093-4.167969-12.015624-1.175782-30.375 25.132813-47.984376 62.488282-48.042969 101.914063v71.765625c0 4.710938 3.820312 8.53125 8.535156 8.53125 4.710937 0 8.53125-3.820312 8.53125-8.53125v-71.765625c.023437-27.140625 9.628906-53.402344 27.121094-74.15625zm0 0"/><path d="m313.421875 261.921875c.414063.003906.828125-.027344 1.234375-.09375 4.664062-.679687 7.894531-5.011719 7.210938-9.675781-8.167969-58.492188-53.597657-104.78125-111.929688-114.046875-4.667969-.667969-8.988281 2.574219-9.65625 7.238281-.667969 4.667969 2.574219 8.988281 7.242188 9.65625 50.859374 8.167969 90.414062 48.601562 97.464843 99.628906.613281 4.183594 4.203125 7.289063 8.433594 7.292969zm0 0"/><path d="m254.957031 266.957031c-1.203125-34.472656-29.402343-61.851562-63.894531-62.035156-3.699219-.023437-7.390625.304687-11.027344.980469-14.914062 2.605468-28.414062 10.441406-38.074218 22.101562-8.703126 10.191406-13.84375 22.941406-14.644532 36.316406-.195312 1.527344-.28125 3.0625-.253906 4.601563v40.191406c0 15.964844 0 35.265625.085938 55.636719-.058594 30.261719 13.496093 58.945312 36.914062 78.113281l11.640625 9.523438c58.066406 47.617187 58.195313 47.703125 58.878906 48.164062 3.8125 2.527344 8.945313 1.566407 11.585938-2.167969 2.691406-3.734374 1.9375-8.929687-1.703125-11.742187-1.613282-1.253906-29.015625-23.699219-57.953125-47.453125l-11.664063-9.523438c-19.582031-16.074218-30.855468-40.136718-30.667968-65.46875-.050782-19.855468-.050782-39.132812-.050782-55.082031v-40.191406c-.027344-.953125.027344-1.90625.152344-2.851563.523438-9.976562 4.308594-19.503906 10.769531-27.117187 7.117188-8.597656 17.074219-14.367187 28.074219-16.265625 2.617188-.488281 5.273438-.722656 7.9375-.699219 25.359375.125 46.066406 20.304688 46.847656 45.652344-.023437.429687.003906.859375.085938 1.28125v43.519531c-.003906 17.679688 4.660156 35.046875 13.523437 50.347656 1.453125 2.777344 4.3125 4.53125 7.445313 4.574219 3.136718.042969 6.039062-1.636719 7.566406-4.371093 1.527344-2.738282 1.433594-6.09375-.25-8.738282-7.433594-12.890625-11.304688-27.527344-11.21875-42.410156v-42.921875c.003906-.65625-.03125-1.3125-.105469-1.964844zm0 0"/><path d="m258.296875 474.976562c4.058594 1.371094 8.503906-.480468 10.390625-4.324218s.632812-8.496094-2.933594-10.867188c-.75-.578125-2.644531-2.132812-5.488281-4.445312l-7.765625-6.28125c-.238281-.257813-.5-.496094-.773438-.714844-10.496093-8.535156-25.765624-20.984375-42.667968-34.792969-19.488282-15.949219-30.769532-39.816406-30.71875-64.996093v-11.28125c-.078125-17.007813-.078125-32.425782-.078125-44.375v-23.976563c-.015625-6.75 5.210937-12.351563 11.945312-12.800781 3.355469-.179688 6.625 1.082031 8.988281 3.472656 2.949219 2.777344 4.636719 6.640625 4.664063 10.691406v13.570313c0 10.65625 0 26.171875-.082031 44.199219v.992187c.121094 30.003906 13.566406 58.402344 36.691406 77.515625 3.523438 2.925781 6.964844 5.761719 10.136719 8.335938 3.664062 2.972656 9.039062 2.410156 12.007812-1.253907 2.96875-3.660156 2.40625-9.035156-1.253906-12.003906-3.140625-2.5625-6.527344-5.335937-10.011719-8.21875-19.222656-15.886719-30.402344-39.488281-30.523437-64.425781v-.980469c.085937-17.921875.085937-33.488281.085937-44.160156v-13.570313c-.023437-8.742187-3.628906-17.09375-9.976562-23.109375-5.804688-5.589843-13.667969-8.523437-21.714844-8.105469-7.285156.457032-14.148438 3.554688-19.3125 8.714844-5.613281 5.597656-8.75 13.207032-8.710938 21.136719v23.976563c0 11.949218 0 27.417968.085938 44.375v11.261718c-.046875 30.304688 13.542969 59.023438 37.007812 78.199219 16.488282 13.5 31.4375 25.695313 41.914063 34.203125.246094.265625.511719.507812.796875.726562l8.53125 6.902344c7.144531 5.863282 7.144531 5.863282 8.765625 6.410156zm0 0"/><path d="m70.664062 45.519531c1.34375-.003906 2.667969-.328125 3.867188-.941406 51.785156-26.355469 111.09375-33.992187 167.867188-21.613281 2.976562.652344 6.078124-.332032 8.132812-2.582032 2.058594-2.253906 2.753906-5.433593 1.832031-8.339843s-3.324219-5.097657-6.304687-5.753907c-60.632813-13.214843-123.972656-5.054687-179.277344 23.09375-3.515625 1.789063-5.34375 5.761719-4.421875 9.597657.921875 3.835937 4.359375 6.542969 8.304687 6.539062zm0 0"/><path d="m274.003906 32.042969c10.695313 3.859375 21.109375 8.457031 31.164063 13.765625 2.695312 1.425781 5.949219 1.308594 8.53125-.3125s4.105469-4.496094 3.992187-7.542969c-.109375-3.050781-1.839844-5.804687-4.535156-7.230469-10.761719-5.679687-21.902344-10.601562-33.347656-14.730468-2.878906-1.085938-6.121094-.535157-8.484375 1.4375-2.359375 1.972656-3.476563 5.066406-2.917969 8.089843.554688 3.027344 2.699219 5.519531 5.609375 6.523438zm0 0"/><path d="m27.820312 121.207031c2.332032.003907 4.566407-.953125 6.175782-2.644531 54.796875-57.496094 136.640625-80.429688 213.335937-59.785156 2.96875.902344 6.195313.121094 8.421875-2.039063 2.226563-2.160156 3.105469-5.363281 2.292969-8.359375s-3.1875-5.3125-6.203125-6.050781c-82.746094-22.320313-171.074219 2.410156-230.203125 64.449219-2.363281 2.472656-3.023437 6.113281-1.675781 9.257812 1.34375 3.140625 4.4375 5.175782 7.855468 5.171875zm0 0"/><path d="m285.082031 53.914062c-1.101562-.25-2.210937-.484374-3.320312-.699218h-.078125c-.464844.050781-.921875.144531-1.371094.273437-.609375.058594-1.210938.179688-1.792969.367188-.566406.269531-1.101562.605469-1.597656.996093-.402344.230469-.789063.492188-1.148437.785157-.519532.550781-.957032 1.167969-1.308594 1.835937-.214844.269532-.410156.554688-.585938.855469v.066406c-.167968.527344-.285156 1.070313-.351562 1.621094-.171875.554687-.285156 1.128906-.339844 1.707031v.058594c.046875.355469.117188.707031.210938 1.050781.050781.730469.199218 1.449219.4375 2.140625.234374.5.519531.972656.851562 1.410156.242188.46875.527344.914063.855469 1.332032.554687.511718 1.179687.945312 1.851562 1.296875.265625.214843.550781.410156.851563.578125 33.285156 14.742187 62.40625 37.488281 84.769531 66.210937 1.847656 2.480469 4.890625 3.769531 7.957031 3.371094 3.070313-.402344 5.675782-2.433594 6.820313-5.308594s.640625-6.144531-1.3125-8.542969c-24.09375-30.960937-55.480469-55.472656-91.355469-71.355468zm0 0"/><path d="m83.480469 120.527344c16.46875-12.09375 34.875-21.296875 54.425781-27.222656 2.976562-.839844 5.265625-3.21875 5.984375-6.226563.71875-3.003906-.242187-6.164063-2.511719-8.261719-2.273437-2.09375-5.5-2.796875-8.4375-1.835937-21.402344 6.484375-41.550781 16.558593-59.582031 29.789062-3.796875 2.796875-4.609375 8.140625-1.816406 11.9375 2.796875 3.800781 8.140625 4.613281 11.9375 1.820313zm0 0"/><path d="m5.886719 217.558594c4.484375 1.457031 9.296875-.996094 10.753906-5.480469 8.242187-25.523437 22.078125-48.886719 40.507813-68.375 3.230468-3.433594 3.070312-8.839844-.363282-12.070313-3.433594-3.234374-8.835937-3.070312-12.070312.363282-20.144532 21.335937-35.277344 46.894531-44.296875 74.820312-1.449219 4.476563.996093 9.28125 5.46875 10.742188zm0 0"/><path d="m381.773438 256.121094c2.433593.015625 4.757812-1.011719 6.386718-2.820313 1.628906-1.804687 2.410156-4.222656 2.144532-6.644531-11.082032-101.617188-97.023438-178.507812-199.242188-178.269531-7.4375.011719-14.867188.429687-22.257812 1.246093-3.070313.28125-5.75 2.195313-7.011719 5.011719-1.261719 2.8125-.90625 6.089844.929687 8.566407 1.835938 2.476562 4.867188 3.773437 7.925782 3.386718 6.78125-.75 13.59375-1.132812 20.414062-1.144531 93.492188-.207031 172.089844 70.128906 182.226562 163.074219.480469 4.320312 4.132813 7.59375 8.484376 7.59375zm0 0"/><path d="m348.320312 263.886719h.734376c2.257812-.195313 4.34375-1.273438 5.800781-3.007813 1.457031-1.730468 2.167969-3.972656 1.972656-6.226562-3.132813-36.164063-17.859375-70.347656-41.992187-97.46875-3.152344-3.457032-8.507813-3.726563-11.996094-.605469-3.488282 3.125-3.808594 8.472656-.71875 11.992187 21.667968 24.355469 34.894531 55.054688 37.710937 87.53125.386719 4.402344 4.070313 7.78125 8.488281 7.785157zm0 0"/><path d="m55.132812 207.320312c24.726563-54.757812 79.910157-89.3125 139.964844-87.648437 3.046875.082031 5.910156-1.46875 7.503906-4.066406 1.597657-2.597657 1.683594-5.851563.230469-8.535157-1.453125-2.679687-4.226562-4.382812-7.273437-4.464843-66.941406-1.976563-128.484375 36.558593-155.945313 97.640625-8.691406 18.898437-13.707031 39.28125-14.78125 60.054687-.085937 2.816407-.171875 5.71875-.171875 8.621094 0 19.085937 0 29.3125.105469 30.386719.269531 4.5 4.019531 8 8.53125 7.960937h.425781c4.671875-.253906 8.28125-4.199219 8.117188-8.875-.113282-2.253906-.113282-28.066406-.113282-29.472656 0-2.730469.085938-5.453125.15625-7.894531.984376-18.578125 5.484376-36.804688 13.25-53.707032zm0 0"/><path d="m231.621094 124.929688c16.265625 4.335937 31.644531 11.480468 45.449218 21.121093 2.5 1.742188 5.742188 2.015625 8.503907.71875s4.621093-3.96875 4.878906-7.003906c.253906-3.039063-1.128906-5.984375-3.628906-7.726563-15.476563-10.796874-32.726563-18.796874-50.964844-23.640624l-3.15625-.765626c-4.574219-1.132812-9.203125 1.65625-10.335937 6.234376-1.136719 4.574218 1.65625 9.203124 6.230468 10.335937zm0 0"/><path d="m272.980469 308.632812c.632812 4.671876 4.929687 7.945313 9.601562 7.316407 4.667969-.632813 7.945313-4.929688 7.3125-9.601563-.476562-3.496094-.710937-7.019531-.699219-10.546875v-24.578125c.886719-36.464844-18.546874-70.40625-50.441406-88.109375-31.890625-17.699219-70.976562-16.230469-101.453125 3.808594-12.554687 8.199219-23.0625 19.167969-30.71875 32.0625-8.902343 15.136719-13.617187 32.375-13.652343 49.9375v111.957031c-.058594 30.257813 13.492187 58.9375 36.90625 78.105469l18.96875 15.582031c16.101562 13.234375 31.09375 25.597656 42.496093 34.867188 3.652344 2.976562 9.027344 2.429687 12.003907-1.222656 2.980468-3.652344 2.433593-9.027344-1.21875-12.003907-11.382813-9.292969-26.367188-21.609375-42.445313-34.816406l-18.925781-15.601563c-19.566406-16.035156-30.851563-40.039062-30.71875-65.335937v-111.53125c.035156-14.492187 3.917968-28.710937 11.253906-41.207031 16.277344-27.394532 47.027344-42.789063 78.710938-39.398438 41.726562 5.101563 72.867187 40.878906 72.167968 82.90625v25.003906c.003906 4.152344.289063 8.296876.851563 12.40625zm0 0"/><path d="m448.828125 351.71875c-3.332031-3.332031-8.734375-3.332031-12.066406 0l-36.632813 36.632812-36.632812-36.632812c-3.351563-3.234375-8.671875-3.1875-11.964844.105469-3.289062 3.289062-3.335938 8.613281-.101562 11.960937l36.632812 36.632813-36.632812 36.636719c-2.21875 2.140624-3.109376 5.3125-2.328126 8.296874.78125 2.984376 3.109376 5.3125 6.09375 6.09375 2.984376.78125 6.15625-.109374 8.300782-2.328124l36.632812-36.632813 36.632813 36.632813c3.347656 3.234374 8.671875 3.1875 11.960937-.101563 3.292969-3.292969 3.339844-8.613281.105469-11.960937l-36.632813-36.636719 36.632813-36.632813c3.332031-3.332031 3.332031-8.734375 0-12.066406zm0 0"/></svg>