<svg height="511pt" viewBox="0 0 511.24301 511" width="511pt" xmlns="http://www.w3.org/2000/svg"><path d="m502.699219 400.25c-.09375 56.582031-45.988281 102.398438-102.570313 102.398438-4.25.003906-8.496094-.253907-12.714844-.765626-51.324218-6.324218-89.878906-49.917968-89.878906-101.632812s38.554688-95.308594 89.878906-101.632812c4.21875-.511719 8.464844-.769532 12.714844-.765626 56.582032 0 102.476563 45.816407 102.570313 102.398438zm0 0" fill="#2e7d32"/><path d="m477.273438 400.25c0-56.128906-40.230469-101.632812-89.859376-101.632812-49.625 0-89.855468 45.503906-89.855468 101.632812s40.230468 101.632812 89.855468 101.632812c49.628907 0 89.859376-45.503906 89.859376-101.632812zm0 0" fill="#4caf50"/><path d="m135.101562 149.164062c-2.753906 1.304688-4.605468 3.980469-4.855468 7.019532-.246094 3.039062 1.144531 5.980468 3.652344 7.714844 2.507812 1.734374 5.753906 2 8.507812.695312 10.554688-5.023438 21.839844-8.339844 33.433594-9.832031 3.023437-.382813 5.613281-2.355469 6.792968-5.167969 1.175782-2.808594.765626-6.035156-1.082031-8.464844-1.84375-2.425781-4.84375-3.683594-7.871093-3.296875-13.375 1.722657-26.394532 5.546875-38.578126 11.332031zm0 0"/><path d="m72.109375 434.980469c.925781.003906 1.84375-.140625 2.722656-.425781 2.144531-.722657 3.917969-2.265626 4.921875-4.292969 1.007813-2.03125 1.167969-4.375.445313-6.519531-2.925781-8.753907-4.390625-17.929688-4.335938-27.160157v-21.761719c0-4.710937-3.820312-8.53125-8.53125-8.53125-4.714843 0-8.535156 3.820313-8.535156 8.53125v22.273438c-.011719 10.902344 1.75 21.738281 5.222656 32.074219 1.167969 3.472656 4.425781 5.8125 8.089844 5.8125zm0 0"/><path d="m102.972656 194.765625c4.4375-5.300781 9.359375-10.179687 14.703125-14.566406 2.359375-1.933594 3.503907-4.980469 3.003907-7.988281-.496094-3.011719-2.5625-5.523438-5.417969-6.597657s-6.066407-.539062-8.421875 1.394531c-18.796875 15.605469-32.9375 36.082032-40.875 59.1875-4.761719 13.742188-7.183594 28.183594-7.167969 42.726563v71.765625c0 4.710938 3.820313 8.53125 8.535156 8.53125 4.710938 0 8.53125-3.820312 8.53125-8.53125v-71.765625c.027344-27.140625 9.625-53.398437 27.109375-74.15625zm0 0"/><path d="m313.414062 261.925781c.417969 0 .835938-.03125 1.246094-.09375 4.664063-.683593 7.890625-5.015625 7.210938-9.679687-8.171875-58.496094-53.605469-104.785156-111.941406-114.046875-3.015626-.429688-6.035157.78125-7.917969 3.179687-1.882813 2.398438-2.34375 5.617188-1.207031 8.445313 1.132812 2.832031 3.691406 4.839843 6.710937 5.269531 50.863281 8.167969 90.425781 48.597656 97.476563 99.628906.613281 4.183594 4.195312 7.285156 8.421874 7.296875zm0 0"/><path d="m254.96875 266.96875c-1.207031-34.476562-29.40625-61.859375-63.90625-62.046875-3.695312-.019531-7.386719.308594-11.023438.980469-14.917968 2.605468-28.414062 10.441406-38.074218 22.101562-8.695313 10.183594-13.828125 22.925782-14.628906 36.292969-.210938 1.53125-.300782 3.078125-.273438 4.625v40.191406c0 15.964844 0 35.269531.085938 55.636719-.066407 30.265625 13.492187 58.953125 36.914062 78.117188l9.191406 7.523437c60.46875 49.597656 60.585938 49.691406 61.289063 50.144531 1.382812.925782 3.015625 1.421875 4.683593 1.421875 3.691407.046875 6.992188-2.289062 8.183594-5.785156 1.1875-3.496094-.007812-7.359375-2.960937-9.574219-1.628907-1.269531-30.167969-24.667968-60.375-49.441406l-9.222657-7.492188c-19.582031-16.074218-30.851562-40.132812-30.667968-65.46875-.054688-19.855468-.054688-39.132812-.054688-55.082031v-40.191406c-.023437-.953125.03125-1.90625.164063-2.851563.515625-9.972656 4.296875-19.5 10.761719-27.117187 7.117187-8.597656 17.074218-14.363281 28.074218-16.265625 2.617188-.484375 5.273438-.71875 7.933594-.699219 25.359375.125 46.070312 20.304688 46.847656 45.652344-.019531.429687.007813.859375.085938 1.28125v43.519531c-.003906 17.679688 4.664062 35.046875 13.527344 50.347656 1.453124 2.777344 4.3125 4.535157 7.445312 4.578126 3.132812.039062 6.039062-1.636719 7.566406-4.375 1.527344-2.738282 1.429688-6.09375-.25-8.738282-7.433594-12.890625-11.308594-27.527344-11.222656-42.410156v-42.921875c.007812-.652344-.023438-1.304687-.09375-1.953125zm0 0"/><path d="m258.296875 474.976562c4.058594 1.371094 8.503906-.476562 10.394531-4.324218 1.886719-3.84375.632813-8.492188-2.933594-10.867188-.769531-.59375-2.699218-2.175781-5.609374-4.539062l-7.644532-6.1875c-.242187-.25-.5-.484375-.769531-.707032-10.496094-8.53125-25.761719-20.984374-42.664063-34.789062-19.484374-15.953125-30.765624-39.820312-30.722656-65v-11.289062c-.082031-17.007813-.082031-32.425782-.082031-44.371094v-23.980469c-.019531-3.402344 1.320313-6.667969 3.726563-9.070313 2.207031-2.210937 5.144531-3.542968 8.261718-3.746093 3.34375-.136719 6.59375 1.121093 8.976563 3.472656 2.945312 2.785156 4.617187 6.65625 4.632812 10.710937v13.566407c0 10.65625 0 26.171875-.085937 44.203125v.988281c.125 30.003906 13.566406 58.402344 36.695312 77.519531 3.515625 2.917969 6.953125 5.757813 10.136719 8.335938 3.660156 2.96875 9.039063 2.40625 12.007813-1.253906 2.96875-3.664063 2.40625-9.039063-1.253907-12.007813-3.132812-2.558594-6.519531-5.332031-10.011719-8.21875-19.226562-15.886719-30.40625-39.484375-30.523437-64.425781v-.980469c.085937-17.921875.085937-33.484375.085937-44.160156v-13.566407c-.023437-8.746093-3.628906-17.097656-9.976562-23.109374-5.800781-5.589844-13.660156-8.527344-21.707031-8.109376-7.289063.457032-14.15625 3.554688-19.320313 8.714844-5.613281 5.597656-8.75 13.210938-8.714844 21.136719v23.980469c0 11.945312 0 27.414062.085938 44.371094v11.265624c-.042969 30.300782 13.546875 59.019532 37.011719 78.199219 16.484375 13.5 31.433593 25.691407 41.90625 34.199219.25.257812.515625.5.792969.726562l8.378906 6.828126c7.304687 5.9375 7.304687 5.9375 8.925781 6.484374zm0 0"/><path d="m70.667969 45.519531c1.34375-.003906 2.667969-.324219 3.863281-.9375 51.785156-26.355469 111.089844-33.992187 167.859375-21.617187 4.605469 1.015625 9.160156-1.898438 10.171875-6.5 1.015625-4.605469-1.898438-9.160156-6.5-10.171875-60.632812-13.21875-123.972656-5.058594-179.277344 23.089843-3.519531 1.792969-5.347656 5.761719-4.421875 9.597657.921875 3.839843 4.355469 6.542969 8.304688 6.539062zm0 0"/><path d="m274.007812 32.046875c10.695313 3.855469 21.109376 8.457031 31.164063 13.761719 2.695313 1.425781 5.945313 1.308594 8.53125-.3125 2.582031-1.621094 4.105469-4.496094 3.992187-7.542969-.113281-3.046875-1.839843-5.804687-4.535156-7.230469-10.761718-5.679687-21.90625-10.601562-33.351562-14.730468-4.429688-1.601563-9.324219.695312-10.925782 5.125-1.601562 4.433593.691407 9.324218 5.125 10.929687zm0 0"/><path d="m27.820312 121.210938c2.332032-.003907 4.5625-.957032 6.171876-2.644532 54.796874-57.496094 136.636718-80.429687 213.332031-59.785156 2.976562.914062 6.214843.140625 8.449219-2.027344 2.238281-2.164062 3.117187-5.375 2.296874-8.378906-.820312-3.003906-3.214843-5.320312-6.242187-6.046875-82.738281-22.324219-171.058594 2.410156-230.175781 64.453125-2.363282 2.46875-3.023438 6.109375-1.679688 9.25s4.433594 5.179688 7.847656 5.179688zm0 0"/><path d="m285.085938 53.914062c-.578126-.191406-1.171876-.320312-1.777344-.390624-.507813-.152344-1.027344-.253907-1.550782-.308594h-.070312c-.40625.050781-.808594.132812-1.203125.25-1.257813-.011719-2.476563.453125-3.414063 1.296875-.464843.238281-.910156.527343-1.320312.851562-.480469.515625-.894531 1.089844-1.230469 1.707031-.234375.289063-.453125.59375-.648437.914063v.066406c-.164063.53125-.28125 1.074219-.351563 1.621094-.171875.558594-.285156 1.128906-.339843 1.707031v.0625c.046874.363282.121093.722656.222656 1.074219.050781.71875.195312 1.429687.425781 2.117187.238281.492188.523437.960938.855469 1.398438.257812.472656.558594.921875.902344 1.339844.515624.484375 1.089843.898437 1.707031 1.238281.285156.234375.585937.449219.90625.636719 33.285156 14.742187 62.410156 37.488281 84.777343 66.210937 2.929688 3.597657 8.195313 4.199219 11.859376 1.347657 3.660156-2.847657 4.375-8.101563 1.605468-11.824219-24.09375-30.921875-55.460937-55.402344-91.304687-71.261719zm0 0"/><path d="m83.476562 120.527344c16.46875-12.09375 34.878907-21.296875 54.433594-27.222656 2.949219-.859376 5.207032-3.242188 5.914063-6.230469.703125-2.992188-.253907-6.128907-2.507813-8.21875-2.25-2.085938-5.453125-2.804688-8.382812-1.875-21.398438 6.484375-41.539063 16.558593-59.5625 29.789062-3.796875 2.792969-4.613282 8.132813-1.824219 11.929688 2.789063 3.800781 8.128906 4.617187 11.929687 1.828125zm0 0"/><path d="m5.890625 217.558594c4.480469 1.457031 9.296875-.996094 10.75-5.476563 8.253906-25.523437 22.097656-48.886719 40.519531-68.386719 2.117188-2.214843 2.882813-5.398437 2.003906-8.335937-.875-2.933594-3.257812-5.175781-6.242187-5.871094-2.988281-.691406-6.113281.265625-8.195313 2.515625-20.144531 21.332032-35.277343 46.886719-44.304687 74.804688-1.457031 4.476562.992187 9.289062 5.46875 10.75zm0 0"/><path d="m381.773438 256.121094c.316406 0 .628906-.015625.941406-.050782 4.671875-.515624 8.050781-4.710937 7.550781-9.386718-11.070313-101.609375-96.992187-178.511719-199.203125-178.296875-7.4375.011719-14.867188.429687-22.261719 1.246093-3.050781.308594-5.703125 2.230469-6.949219 5.03125-1.242187 2.804688-.886718 6.0625.9375 8.527344 1.820313 2.46875 4.824219 3.769532 7.871094 3.40625 6.777344-.75 13.585938-1.132812 20.402344-1.140625 93.496094-.207031 172.097656 70.125 182.238281 163.070313.480469 4.320312 4.128907 7.589844 8.472657 7.59375zm0 0"/><path d="m348.324219 263.886719h.742187c2.257813-.191407 4.34375-1.273438 5.800782-3.003907 1.457031-1.734374 2.167968-3.972656 1.972656-6.230468-3.140625-36.164063-17.871094-70.347656-42-97.464844-3.15625-3.460938-8.507813-3.730469-11.996094-.609375-3.488281 3.125-3.808594 8.476563-.71875 11.992187 21.667969 24.355469 34.894531 55.058594 37.707031 87.535157.390625 4.398437 4.074219 7.777343 8.492188 7.78125zm0 0"/><path d="m55.144531 207.320312c24.679688-54.792968 79.886719-89.367187 139.957031-87.648437 4.679688.050781 8.558594-3.621094 8.761719-8.300781.125-4.710938-3.59375-8.628906-8.300781-8.753906-66.921875-1.902344-128.425781 36.601562-155.949219 97.628906-8.683593 18.894531-13.695312 39.269531-14.769531 60.039062-.09375 2.824219-.179688 5.726563-.179688 8.636719 0 19.089844 0 29.3125.101563 30.386719.273437 4.503906 4.023437 8.003906 8.535156 7.960937h.417969c4.671875-.246093 8.289062-4.195312 8.121094-8.875-.109375-2.25-.109375-28.066406-.109375-29.472656 0-2.722656.085937-5.445313.164062-7.894531.972657-18.578125 5.472657-36.804688 13.25-53.707032zm0 0"/><path d="m231.621094 124.929688c16.265625 4.332031 31.644531 11.480468 45.441406 21.121093 3.871094 2.695313 9.191406 1.742188 11.886719-2.125 2.695312-3.871093 1.746093-9.191406-2.125-11.886719-15.472657-10.796874-32.714844-18.792968-50.953125-23.628906l-3.148438-.769531c-4.523437-1.015625-9.03125 1.761719-10.152344 6.261719-1.121093 4.496094 1.550782 9.066406 6.023438 10.292968zm0 0"/><path d="m272.984375 308.644531c.636719 4.671875 4.9375 7.941407 9.609375 7.304688 4.667969-.636719 7.9375-4.9375 7.304688-9.609375-.480469-3.492188-.710938-7.011719-.703126-10.539063v-24.574219c.894532-36.46875-18.535156-70.417968-50.433593-88.121093-31.894531-17.699219-70.980469-16.230469-101.457031 3.820312-12.554688 8.199219-23.066407 19.164063-30.722657 32.058594-6.8125 11.394531-11.171875 24.085937-12.796875 37.265625-.574218 4.199219-.859375 8.433594-.855468 12.671875v111.957031c-.054688 30.253906 13.496093 58.929688 36.90625 78.097656l17.136718 14.089844c16.792969 13.796875 32.503906 26.714844 44.371094 36.367188 3.652344 2.980468 9.03125 2.433594 12.007812-1.21875 2.980469-3.652344 2.433594-9.027344-1.21875-12.007813-11.8125-9.640625-27.511718-22.546875-44.28125-36.328125l-17.144531-14.085937c-19.5625-16.035157-30.847656-40.042969-30.710937-65.339844v-111.53125c-.003906-3.5.230468-6.996094.699218-10.460937 1.339844-10.867188 4.9375-21.332032 10.566407-30.722657 16.273437-27.386719 47.015625-42.777343 78.695312-39.398437 41.714844 5.097656 72.859375 40.863281 72.171875 82.886718v25c.003906 4.15625.289063 8.304688.855469 12.417969zm0 0"/><path d="m400.128906 289.316406c-61.242187.097656-110.820312 49.808594-110.753906 111.050782.066406 61.246093 49.75 110.847656 110.996094 110.816406 61.242187-.035156 110.871094-49.691406 110.871094-110.933594-.117188-61.289062-49.824219-110.914062-111.113282-110.933594zm0 204.800782c-51.816406-.101563-93.75-42.167969-93.6875-93.988282.066406-51.816406 42.109375-93.777344 93.929688-93.746094 51.816406.035157 93.804687 42.050782 93.804687 93.867188-.101562 51.867188-42.175781 93.863281-94.046875 93.867188zm0 0"/><path d="m453.832031 360.253906-79.300781 79.300782-28.101562-28.101563c-3.347657-3.234375-8.671876-3.1875-11.960938.105469-3.292969 3.292968-3.339844 8.613281-.105469 11.960937l28.101563 28.101563c6.664062 6.660156 17.46875 6.660156 24.132812 0l79.300782-79.300782c3.230468-3.347656 3.1875-8.671874-.105469-11.960937-3.292969-3.292969-8.613281-3.339844-11.960938-.105469zm0 0"/></svg>